# xmcd
#
# Track frame offsets: 
#        150
#        27450
#        36075
#        69215
#        79470
#        110340
#        147200
#        176100
#        188445
#        222750
#        255225
#        314565
#
# Disc length: 4256 seconds
#
# Revision: 0
# Processed by: cddbd v1.5.2PL0 Copyright (c) Steve Scherf et al.
# Submitted via: ExactAudioCopy v1.1
#
DISCID=a2109e0c
DTITLE=Urban Fusion - 2016-06-19 - Talleyrand Park - Bellefonte PA
DYEAR=2016
DGENRE=Fusion
TTITLE0=Soundcheck
TTITLE1=Introduction
TTITLE2=Sarao
TTITLE3=Introduction of band members
TTITLE4=St. Thomas
TTITLE5=So What
TTITLE6=Always There
TTITLE7=Intermission
TTITLE8=Cissy Strut
TTITLE9=The Thrill Is Gone
TTITLE10=Mr. Magic
TTITLE11=Closing Remarks
EXTD=
EXTT0=
EXTT1=
EXTT2=
EXTT3=
EXTT4=
EXTT5=
EXTT6=
EXTT7=
EXTT8=
EXTT9=
EXTT10=
EXTT11=
PLAYORDER=
